<svg xmlns="http://www.w3.org/2000/svg" viewBox="0 0 32 32" fill="white"><path d="M16.003 3.2c-7.07 0-12.8 5.73-12.8 12.8 0 2.26.594 4.47 1.722 6.413L3.2 28.8l6.55-1.713a12.78 12.78 0 0 0 6.252 1.604h.005c7.07 0 12.8-5.73 12.8-12.8 0-3.42-1.332-6.633-3.751-9.052A12.72 12.72 0 0 0 16.003 3.2zm0 23.36h-.004a10.62 10.62 0 0 1-5.41-1.482l-.388-.23-4.04 1.057 1.078-3.94-.252-.404a10.6 10.6 0 0 1-1.625-5.66c0-5.86 4.77-10.63 10.63-10.63 2.84 0 5.5 1.107 7.51 3.115a10.55 10.55 0 0 1 3.114 7.518c0 5.86-4.77 10.63-10.63 10.63zm5.83-7.96c-.32-.16-1.89-.93-2.18-1.04-.293-.107-.506-.16-.72.16s-.825 1.04-1.012 1.253c-.187.213-.373.24-.693.08-.32-.16-1.35-.498-2.572-1.587-.95-.848-1.592-1.895-1.78-2.215-.186-.32-.02-.493.14-.652.144-.144.32-.373.48-.56.16-.187.213-.32.32-.533.107-.213.053-.4-.027-.56-.08-.16-.72-1.733-.987-2.373-.26-.624-.524-.54-.72-.55l-.613-.01c-.213 0-.56.08-.853.4-.293.32-1.12 1.094-1.12 2.667s1.146 3.094 1.306 3.307c.16.213 2.255 3.444 5.464 4.83.764.33 1.36.526 1.825.673.766.244 1.464.21 2.016.127.615-.092 1.89-.773 2.156-1.52.267-.747.267-1.387.187-1.52-.08-.133-.293-.213-.613-.373z"/></svg>
